<svg id="Capa_1" enable-background="new 0 0 512 512" height="512" viewBox="0 0 512 512" width="512" xmlns="http://www.w3.org/2000/svg"><g><path d="m510 14.131c-.163-5.308-4.542-9.536-9.879-9.486-28.013.262-56.124 1.308-84.233 3.63-81.918 6.76-165.147 28.782-231.9 78.451-12.55-21.543-28.79-40.993-44.741-59.965-6.141-7.077-12.819-15.116-18.76-22.28-4.405-5.334-12.377-6.003-17.607-1.473-33.055 28.315-64.278 60.708-82.924 100.61-4.469 9.595-8.959 19.605-11.561 29.895-10.798 42.836 13.125 89.899 51.885 109.703-2.104 12.305-3.498 24.599-3.601 37.073-.46 35.427 10.908 68.762 22.943 101.381 2.406 6.52 5.067 13.608 7.576 20.499-12.782 11.881-41.493 38.548-45.07 41.895-8.416 8.226-25.289 24.411-34.052 32.807-19.251 19.745 9.233 47.884 28.746 28.746 0 0 20.104-21.014 20.103-21.015 18.758-19.403 37.747-38.849 56.814-58.328 8.413-1.624 15.903-8.264 16.967-17.327 43.158-44.057 86.503-88.278 128.337-132.58 26.221-27.912 54.177-56.445 79.487-85.066 6.44-7.309 12.806-14.688 19.099-22.129 3.078-3.656 2.85-9.146-.645-12.506-3.647-3.507-9.45-3.388-12.95.265-6.661 6.928-13.39 13.792-20.193 20.587-68.156 66.898-137.998 132.639-207.888 197.851-3.318-5.841-6.55-11.713-9.606-17.581-15.589-30.656-33.274-71.99-20.671-106.049 7.664 1.478 15.492 2.159 23.145 2.067 36.566 1.588 71.9-19.593 88.797-51.863 13.693-25.731 10.701-56.49 1.376-82.797-1.343-3.956-2.847-7.829-4.479-11.635 31.005-23.755 66.862-40.593 104.072-52.313 59.238-18.628 121.237-22.821 183.113-22.675-3.028 112.988-31.507 239.061-110.211 322.276-45.489 49.543-105.846 83.929-174.898 72.041-13.705-2.491-18.991 17.625-5.736 22.201 22.275 7.985 46.423 10.354 69.935 8.02 77.74-7.427 141.329-65.057 182.328-128.141 50.699-82.714 64.149-181.632 67.115-276.798.091-12.477.224-25.567-.233-37.991zm-335.764 182.991c-13.175 22.23-38.762 35.503-64.631 33.768-6.248-.114-12.515-.984-18.513-2.681-1.911-4.387-5.799-7.911-10.914-8.795-2.428-.476-4.823-.318-7.042.328-2.118-1.51-4.141-3.17-6.03-5.018-19.016-18.839-26.928-49.329-18.325-74.734 13.385-36.726 36.119-68.841 62.306-97.606 25.969 26.587 51.851 54.406 65.062 89.313 8.1 20.822 11.03 45.995-1.913 65.425z"/></g></svg>